<?xml version="1.0" standalone="no"?>
<!DOCTYPE svg PUBLIC "-//W3C//DTD SVG 20010904//EN"
 "http://www.w3.org/TR/2001/REC-SVG-20010904/DTD/svg10.dtd">
<svg version="1.0" xmlns="http://www.w3.org/2000/svg"
 width="206.000000pt" height="220.000000pt" viewBox="0 0 206.000000 220.000000"
 preserveAspectRatio="xMidYMid meet">

<g transform="translate(0.000000,220.000000) scale(0.100000,-0.100000)"
fill="#FFFFFF" stroke="none">
<path d="M0 1100 l0 -1100 1030 0 1030 0 0 1100 0 1100 -1030 0 -1030 0 0
-1100z m1953 1002 l57 -4 -2 -1016 -3 -1017 -972 -3 -973 -2 0 1018 c0 560 3
1021 6 1025 7 7 1795 6 1887 -1z"/>
<path d="M158 1823 c-6 -376 -7 -1609 -1 -1641 l5 -32 874 0 874 0 0 930 0
930 -875 0 -874 0 -3 -187z m263 78 c29 -35 25 -101 -6 -131 -19 -18 -36 -23
-82 -24 l-58 -1 -3 94 -3 93 67 -4 c55 -3 70 -8 85 -27z m107 6 c4 -22 -25
-57 -46 -57 -12 0 -11 4 4 21 14 16 15 23 7 26 -7 3 -13 11 -13 20 0 21 44 12
48 -10z m254 6 c27 -24 24 -87 -4 -107 -12 -9 -34 -16 -49 -16 -18 0 -28 -6
-32 -20 -3 -14 -14 -20 -31 -20 l-26 0 0 90 0 90 62 0 c43 0 67 -5 80 -17z
m204 -1 c54 -43 57 -91 9 -139 -32 -32 -40 -35 -76 -30 -75 10 -116 76 -85
136 9 16 24 35 33 40 28 16 96 12 119 -7z m193 9 c7 -5 11 -17 7 -28 -5 -15
-13 -18 -41 -15 -21 3 -35 0 -35 -7 0 -6 10 -11 23 -11 34 0 67 -28 67 -56 0
-57 -82 -85 -131 -44 -21 17 -22 21 -9 30 19 13 47 13 55 0 4 -6 11 -8 16 -5
17 11 9 23 -18 30 -16 4 -34 11 -40 17 -18 15 -16 63 3 82 17 17 80 21 103 7z
m205 -9 c15 -18 15 -20 -3 -36 -12 -11 -21 -14 -26 -7 -11 20 -34 12 -49 -17
-21 -41 -7 -56 43 -48 52 8 68 -16 32 -46 -55 -44 -141 3 -141 77 0 74 98 126
144 77z m106 -17 c0 -32 2 -35 30 -35 28 0 30 3 30 35 0 32 2 35 30 35 l31 0
-3 -92 c-3 -92 -3 -93 -28 -93 -21 0 -25 5 -28 36 -3 33 -5 35 -32 31 -27 -4
-30 -8 -30 -39 0 -28 -3 -34 -16 -29 -9 3 -22 6 -30 6 -11 0 -14 18 -14 83 0
46 3 87 7 90 3 4 17 7 30 7 20 0 23 -5 23 -35z m310 10 c0 -20 -5 -25 -25 -25
-24 0 -25 -2 -25 -71 l0 -70 -27 3 c-30 3 -30 2 -32 83 -1 52 -3 55 -26 55
-20 0 -25 5 -25 25 0 25 1 25 80 25 79 0 80 0 80 -25z m-480 -377 c274 -100
414 -339 397 -678 -7 -135 -25 -209 -75 -305 -46 -89 -146 -190 -226 -229
-131 -62 -115 -61 -656 -61 l-495 0 1 45 1 45 44 7 c29 5 52 17 66 33 l23 26
0 479 c0 330 -3 487 -11 503 -13 30 -42 45 -89 49 -19 2 -34 6 -32 11 1 4 2
30 2 58 l0 50 488 -3 487 -3 75 -27z"/>
<path d="M320 1836 c0 -40 2 -44 21 -41 64 12 65 85 2 85 -21 0 -23 -5 -23
-44z"/>
<path d="M700 1860 c0 -16 5 -21 23 -18 12 2 22 10 22 18 0 8 -10 16 -22 18
-18 3 -23 -2 -23 -18z"/>
<path d="M892 1868 c-28 -28 -3 -72 39 -66 30 4 47 33 33 56 -14 21 -55 27
-72 10z"/>
<path d="M720 900 l0 -340 213 0 c168 0 223 3 260 16 67 23 129 82 163 156 26
57 29 73 29 168 0 92 -3 112 -26 160 -37 78 -71 114 -141 149 l-61 31 -219 0
-218 0 0 -340z m460 6 c0 -105 -3 -147 -12 -153 -7 -4 -73 -8 -145 -8 l-133 0
0 48 0 47 105 0 105 0 0 55 0 55 -105 0 -105 0 0 50 0 50 145 0 145 0 0 -144z"/>
</g>
</svg>
